<svg xmlns="http://www.w3.org/2000/svg" version="1.1" width="40px" height="40px"><rect x="0" y="0" width="40" height="40" fill="transparent" stroke-width="0"/><g transform="translate(20,20)"><g stroke-width="4" stroke-linecap="round" stroke="rgb(0, 0, 0)" opacity="1"><g><line x1="0" y1="10" x2="0" y2="16" transform="rotate(0, 0, 0)"/><animate attributeName="opacity" values="0.175;0.1;1;0.175" keyTimes="0;0.0833333333333;0.0833333333333;1" dur="1s" repeatCount="indefinite"/></g><g><line x1="0" y1="10" x2="0" y2="16" transform="rotate(30, 0, 0)"/><animate attributeName="opacity" values="0.25;0.1;1;0.25" keyTimes="0;0.166666666667;0.166666666667;1" dur="1s" repeatCount="indefinite"/></g><g><line x1="0" y1="10" x2="0" y2="16" transform="rotate(60, 0, 0)"/><animate attributeName="opacity" values="0.325;0.1;1;0.325" keyTimes="0;0.25;0.25;1" dur="1s" repeatCount="indefinite"/></g><g><line x1="0" y1="10" x2="0" y2="16" transform="rotate(90, 0, 0)"/><animate attributeName="opacity" values="0.4;0.1;1;0.4" keyTimes="0;0.333333333333;0.333333333333;1" dur="1s" repeatCount="indefinite"/></g><g><line x1="0" y1="10" x2="0" y2="16" transform="rotate(120, 0, 0)"/><animate attributeName="opacity" values="0.475;0.1;1;0.475" keyTimes="0;0.416666666667;0.416666666667;1" dur="1s" repeatCount="indefinite"/></g><g><line x1="0" y1="10" x2="0" y2="16" transform="rotate(150, 0, 0)"/><animate attributeName="opacity" values="0.55;0.1;1;0.55" keyTimes="0;0.5;0.5;1" dur="1s" repeatCount="indefinite"/></g><g><line x1="0" y1="10" x2="0" y2="16" transform="rotate(180, 0, 0)"/><animate attributeName="opacity" values="0.625;0.1;1;0.625" keyTimes="0;0.583333333333;0.583333333333;1" dur="1s" repeatCount="indefinite"/></g><g><line x1="0" y1="10" x2="0" y2="16" transform="rotate(210, 0, 0)"/><animate attributeName="opacity" values="0.7;0.1;1;0.7" keyTimes="0;0.666666666667;0.666666666667;1" dur="1s" repeatCount="indefinite"/></g><g><line x1="0" y1="10" x2="0" y2="16" transform="rotate(240, 0, 0)"/><animate attributeName="opacity" values="0.775;0.1;1;0.775" keyTimes="0;0.75;0.75;1" dur="1s" repeatCount="indefinite"/></g><g><line x1="0" y1="10" x2="0" y2="16" transform="rotate(270, 0, 0)"/><animate attributeName="opacity" values="0.85;0.1;1;0.85" keyTimes="0;0.833333333333;0.833333333333;1" dur="1s" repeatCount="indefinite"/></g><g><line x1="0" y1="10" x2="0" y2="16" transform="rotate(300, 0, 0)"/><animate attributeName="opacity" values="0.925;0.1;1;0.925" keyTimes="0;0.916666666667;0.916666666667;1" dur="1s" repeatCount="indefinite"/></g><g><line x1="0" y1="10" x2="0" y2="16" transform="rotate(330, 0, 0)"/><animate attributeName="opacity" values="1.0;0.1;1;1.0" keyTimes="0;1.0;1.0;1" dur="1s" repeatCount="indefinite"/></g></g></g></svg>